<?xml version="1.0" standalone="no"?>
<!DOCTYPE svg PUBLIC "-//W3C//DTD SVG 20010904//EN"
 "http://www.w3.org/TR/2001/REC-SVG-20010904/DTD/svg10.dtd">
<svg version="1.0" xmlns="http://www.w3.org/2000/svg"
 width="1633.000000pt" height="980.000000pt" viewBox="0 0 1633.000000 980.000000"
 preserveAspectRatio="xMidYMid meet">

<g transform="translate(0.000000,980.000000) scale(0.100000,-0.100000)"
fill="#000000" stroke="none">
<path d="M5054 5784 c-33 -7 -91 -23 -129 -36 -60 -20 -72 -28 -89 -60 -15
-30 -17 -43 -9 -60 6 -13 18 -43 28 -68 10 -25 26 -65 37 -90 11 -25 26 -58
33 -75 7 -16 20 -46 29 -67 9 -20 16 -39 16 -42 0 -3 9 -28 21 -54 12 -26 25
-56 29 -67 4 -11 19 -45 33 -75 13 -30 34 -80 47 -110 12 -30 28 -68 35 -85 7
-16 25 -61 41 -98 15 -37 31 -70 36 -73 4 -3 8 -12 8 -21 0 -15 21 -67 46
-115 21 -39 18 -45 -34 -62 -96 -32 -146 -114 -128 -210 11 -56 82 -119 174
-154 94 -36 131 -43 452 -87 424 -58 454 -60 815 -60 372 0 411 4 775 70 107
20 231 42 275 50 44 7 181 32 305 54 215 38 337 63 1010 201 330 68 364 75
1130 230 300 60 595 124 655 141 360 102 728 291 783 404 32 64 35 84 21 134
-9 31 -28 61 -58 91 -38 38 -63 51 -146 79 -55 18 -133 51 -174 73 -137 72
-324 106 -531 95 -97 -5 -438 -58 -790 -122 -47 -9 -150 -27 -230 -41 -131
-24 -642 -127 -1085 -219 -93 -19 -188 -35 -210 -35 -55 1 -128 18 -355 85
-107 31 -208 61 -225 65 -16 4 -140 38 -275 75 -135 36 -405 107 -600 157
l-355 90 -178 -5 c-219 -7 -240 -15 -245 -91 -4 -64 10 -78 133 -136 108 -51
211 -100 345 -162 136 -64 243 -115 427 -204 94 -45 181 -85 192 -89 26 -8 27
-22 4 -29 -10 -3 -130 -27 -268 -55 -452 -90 -511 -93 -650 -36 -122 50 -239
130 -360 245 -55 53 -138 132 -183 176 -135 128 -220 209 -337 323 -174 169
-187 176 -291 155z m163 -196 c47 -46 105 -101 128 -123 120 -114 379 -361
459 -438 126 -122 255 -207 391 -258 134 -51 177 -56 327 -35 151 21 925 177
948 191 5 3 10 14 10 24 0 12 -27 31 -87 61 -332 165 -900 436 -1076 514 -33
14 -56 30 -52 36 3 6 46 10 98 10 72 0 122 -8 232 -35 200 -51 558 -143 640
-165 356 -97 353 -96 766 -215 263 -76 243 -77 699 20 467 99 748 153 1330
255 474 83 481 84 625 84 178 0 282 -21 410 -83 55 -27 133 -59 172 -71 101
-30 137 -56 140 -100 4 -46 -14 -65 -117 -127 -271 -163 -497 -243 -947 -333
-137 -27 -448 -90 -693 -140 -245 -50 -521 -107 -615 -126 -93 -18 -255 -51
-360 -73 -458 -94 -609 -123 -905 -176 -173 -31 -385 -69 -470 -85 -299 -55
-410 -65 -725 -64 -197 0 -340 6 -445 17 -191 21 -637 83 -705 99 -107 24
-175 67 -175 110 0 32 28 47 132 67 93 18 103 30 75 93 -8 18 -25 56 -37 83
-36 83 -69 160 -89 210 -9 22 -19 47 -46 110 -9 22 -25 57 -36 78 -10 22 -19
43 -19 47 0 5 -16 43 -35 84 -19 42 -35 79 -35 84 0 4 -11 28 -24 54 -13 25
-26 58 -30 73 -4 15 -22 60 -41 102 -19 41 -35 78 -35 83 0 5 -9 26 -20 46
-12 20 -19 41 -17 47 4 14 100 45 140 46 22 1 46 -16 114 -81z"/>
</g>
</svg>
