<?xml version="1.0" encoding="utf-8"?>
<svg xmlns="http://www.w3.org/2000/svg" viewBox="-148.2835 149.8654 668.4576 177.743" width="668.5px" height="177.7px" xmlns:bx="https://boxy-svg.com" preserveAspectRatio="none"><defs><bx:export><bx:file format="svg"/></bx:export></defs><g transform="matrix(0.1,0,0,-0.1,-630.5,729.1)" fill="#000000" stroke="none"><path transform="matrix(1.2,0,0,1,-1789.3,0)" d="M 5373.7 5710.7 c -33 -7 -91 -23 -129 -36 c -60 -20 -72 -28 -89 -60 c -15 -30 -17 -43 -9 -60 c 6 -13 18 -43 28 -68 c 10 -25 26 -65 37 -90 c 11 -25 26 -58 33 -75 c 7 -16 20 -46 29 -67 c 9 -20 16 -39 16 -42 c 0 -3 9 -28 21 -54 c 12 -26 25 -56 29 -67 c 4 -11 19 -45 33 -75 c 13 -30 34 -80 47 -110 c 12 -30 28 -68 35 -85 c 7 -16 25 -61 41 -98 c 15 -37 31 -70 36 -73 c 4 -3 8 -12 8 -21 c 0 -15 21 -67 46 -115 c 21 -39 18 -45 -34 -62 c -96 -32 -146 -114 -128 -210 c 11 -56 82 -119 174 -154 c 94 -36 131 -43 452 -87 c 424 -58 454 -60 815 -60 c 372 0 411 4 775 70 c 107 20 231 42 275 50 c 44 7 181 32 305 54 c 215 38 337 63 1010 201 c 330 68 364 75 1130 230 c 300 60 595 124 655 141 c 360 102 728 291 783 404 c 32 64 35 84 21 134 c -9 31 -28 61 -58 91 c -38 38 -63 51 -146 79 c -55 18 -133 51 -174 73 c -137 72 -324 106 -531 95 c -97 -5 -438 -58 -790 -122 c -47 -9 -150 -27 -230 -41 c -131 -24 -642 -127 -1085 -219 c -93 -19 -188 -35 -210 -35 c -55 1 -128 18 -355 85 c -107 31 -208 61 -225 65 c -16 4 -140 38 -275 75 c -135 36 -405 107 -600 157 l -355 90 l -178 -5 c -219 -7 -240 -15 -245 -91 c -4 -64 10 -78 133 -136 c 108 -51 211 -100 345 -162 c 136 -64 243 -115 427 -204 c 94 -45 181 -85 192 -89 c 26 -8 27 -22 4 -29 c -10 -3 -130 -27 -268 -55 c -452 -90 -511 -93 -650 -36 c -122 50 -239 130 -360 245 c -55 53 -138 132 -183 176 c -135 128 -220 209 -337 323 c -174 169 -187 176 -291 155 z m 163 -196 c 47 -46 105 -101 128 -123 c 120 -114 379 -361 459 -438 c 126 -122 255 -207 391 -258 c 134 -51 177 -56 327 -35 c 151 21 925 177 948 191 c 5 3 10 14 10 24 c 0 12 -27 31 -87 61 c -332 165 -900 436 -1076 514 c -33 14 -56 30 -52 36 c 3 6 46 10 98 10 c 72 0 122 -8 232 -35 c 200 -51 558 -143 640 -165 c 356 -97 353 -96 766 -215 c 263 -76 243 -77 699 20 c 467 99 748 153 1330 255 c 474 83 481 84 625 84 c 178 0 282 -21 410 -83 c 55 -27 133 -59 172 -71 c 101 -30 137 -56 140 -100 c 4 -46 -14 -65 -117 -127 c -271 -163 -497 -243 -947 -333 c -137 -27 -448 -90 -693 -140 c -245 -50 -521 -107 -615 -126 c -93 -18 -255 -51 -360 -73 c -458 -94 -609 -123 -905 -176 c -173 -31 -385 -69 -470 -85 c -299 -55 -410 -65 -725 -64 c -197 0 -340 6 -445 17 c -191 21 -637 83 -705 99 c -107 24 -175 67 -175 110 c 0 32 28 47 132 67 c 93 18 103 30 75 93 c -8 18 -25 56 -37 83 c -36 83 -69 160 -89 210 c -9 22 -19 47 -46 110 c -9 22 -25 57 -36 78 c -10 22 -19 43 -19 47 c 0 5 -16 43 -35 84 c -19 42 -35 79 -35 84 c 0 4 -11 28 -24 54 c -13 25 -26 58 -30 73 c -4 15 -22 60 -41 102 c -19 41 -35 78 -35 83 c 0 5 -9 26 -20 46 c -12 20 -19 41 -17 47 c 4 14 100 45 140 46 c 22 1 46 -16 114 -81 z"/></g></svg>